<svg version="1.1" xmlns="http://www.w3.org/2000/svg" xmlns:xlink="http://www.w3.org/1999/xlink" width="17.64944" height="19.1025" viewBox="0,0,17.64944,19.1025"><g transform="translate(-230.72474,-169.25444)"><g data-paper-data="{&quot;isPaintingLayer&quot;:true}" fill-rule="nonzero" stroke="none" stroke-linecap="butt" stroke-linejoin="miter" stroke-miterlimit="10" stroke-dasharray="" stroke-dashoffset="0" style="mix-blend-mode: normal"><g><path d="M230.72475,188.35694v-17.6322h17.63221v17.63221z" fill="#cadfec" stroke-width="0"/><path d="M234.9338,180.27145c0,-4.29994 5.92166,-7.78572 13.22641,-7.78572c0.42356,0 0.11441,0.04177 -0.04404,7.7949c-0.1609,7.87234 0.29998,7.77653 -0.58578,7.77653c-7.30475,0 -12.59659,-3.48578 -12.59659,-7.78572z" fill="#a9c1d1" stroke-width="0"/><path d="M242.59094,180.24287c0,-4.39461 2.54802,-7.95715 5.69118,-7.95715c0.18225,0 0.04923,0.04269 -0.01896,7.96653c-0.06923,8.04567 0.12908,7.94776 -0.25206,7.94776c-3.14316,0 -5.42017,-3.56253 -5.42017,-7.95715z" fill="#cadeed" stroke-width="0"/><text transform="translate(231.90181,182.55173) scale(0.34901,0.34901)" font-size="40" xml:space="preserve" fill="#0073ff" fill-rule="nonzero" stroke="none" stroke-width="1" stroke-linecap="butt" stroke-linejoin="miter" stroke-miterlimit="10" stroke-dasharray="" stroke-dashoffset="0" font-family="Handwriting" font-weight="normal" text-anchor="start" style="mix-blend-mode: normal"><tspan x="0" dy="0">AI</tspan></text><path d="M237.72223,184.04289c-0.87445,0 -1.58333,0.70888 -1.58333,1.58333c0,0.87445 0.70888,1.58333 1.58333,1.58333c0.87445,0 1.58333,-0.70888 1.58333,-1.58333c0,-0.87445 -0.70888,-1.58333 -1.58333,-1.58333M239.80036,184.47593c0.28421,-0.26838 0.66737,-0.43304 1.08854,-0.43304c0.40487,-0.00013 0.79441,0.15483 1.08854,0.43304c0.48854,-0.88392 1.48265,-1.3622 2.4782,-1.19229c0.99555,0.16991 1.77475,0.95084 1.94247,1.94675h0.42829c0.21861,0 0.39583,0.17722 0.39583,0.39583c0,0.21861 -0.17722,0.39583 -0.39583,0.39583h-0.42829c-0.2037,1.21954 -1.30902,2.07878 -2.54113,1.9754c-1.23211,-0.10338 -2.17878,-1.13479 -2.17641,-2.37123c0,-0.43723 -0.35444,-0.79167 -0.79167,-0.79167c-0.43723,0 -0.79167,0.35444 -0.79167,0.79167c0.00237,1.23644 -0.9443,2.26785 -2.17641,2.37123c-1.23211,0.10338 -2.33742,-0.75586 -2.54113,-1.9754h-0.42829c-0.21861,0 -0.39583,-0.17722 -0.39583,-0.39583c0,-0.21861 0.17722,-0.39583 0.39583,-0.39583h0.42829c0.16771,-0.99592 0.94692,-1.77684 1.94247,-1.94675c0.99555,-0.16991 1.98966,0.30837 2.4782,1.19229M245.6389,185.62622c0,-0.87445 -0.70888,-1.58333 -1.58333,-1.58333c-0.87445,0 -1.58333,0.70888 -1.58333,1.58333c0,0.87445 0.70888,1.58333 1.58333,1.58333c0.87445,0 1.58333,-0.70888 1.58333,-1.58333" fill="#000101" stroke-width="1"/></g></g></g></svg>